<svg width="60" height="60" viewBox="0 0 60 60" fill="none" xmlns="http://www.w3.org/2000/svg">
<path d="M30.6858 10C31.635 10 32.4195 10.7054 32.5437 11.6206L32.5608 11.875L32.5608 49.375C32.5608 50.4105 31.7213 51.25 30.6858 51.25C29.7365 51.25 28.9521 50.5446 28.8279 49.6294L28.8108 49.375L28.8108 11.875C28.8108 10.8395 29.6503 10 30.6858 10Z" fill="white"/>
<path d="M44.4181 32.9275C45.1487 32.1937 46.3359 32.1912 47.0697 32.9218C47.7368 33.586 47.7996 34.6276 47.2565 35.3628L47.0754 35.5735L32.0154 50.6985C31.3492 51.3675 30.3039 51.4284 29.5688 50.881L29.3582 50.6986L14.2957 35.5736C13.565 34.8398 13.5674 33.6526 14.3012 32.9219C14.9682 32.2576 16.01 32.1993 16.7429 32.7454L16.9528 32.9274L30.6875 46.7175L44.4181 32.9275Z" fill="white"/>
</svg>
