<svg width="60" height="60" viewBox="0 0 60 60" fill="none" xmlns="http://www.w3.org/2000/svg">
<path d="M29.3142 50C28.365 50 27.5805 49.2946 27.4563 48.3794L27.4392 48.125L27.4392 10.625C27.4392 9.58947 28.2787 8.75 29.3142 8.75C30.2634 8.75 31.0479 9.45538 31.1721 10.3706L31.1892 10.625L31.1892 48.125C31.1892 49.1605 30.3497 50 29.3142 50Z" fill="white"/>
<path d="M15.5819 27.0725C14.8513 27.8063 13.6641 27.8088 12.9303 27.0782C12.2632 26.414 12.2004 25.3724 12.7435 24.6372L12.9246 24.4265L27.9846 9.30154C28.6508 8.63245 29.6961 8.57159 30.4312 9.11897L30.6418 9.30144L45.7043 24.4264C46.435 25.1602 46.4326 26.3474 45.6988 27.0781C45.0318 27.7424 43.99 27.8007 43.2571 27.2546L43.0472 27.0726L29.3125 13.2825L15.5819 27.0725Z" fill="white"/>
</svg>
