<svg width="32" height="32" viewBox="0 0 32 32" fill="none" xmlns="http://www.w3.org/2000/svg">
<mask id="mask0_626_1783" style="mask-type:luminance" maskUnits="userSpaceOnUse" x="2" y="2" width="27" height="27">
<path fill-rule="evenodd" clip-rule="evenodd" d="M2.66675 2.66666H28.6358V28.636H2.66675V2.66666Z" fill="white"/>
</mask>
<g mask="url(#mask0_626_1783)">
<path fill-rule="evenodd" clip-rule="evenodd" d="M15.6518 4.66666C9.5945 4.66666 4.6665 9.59332 4.6665 15.6507C4.6665 21.708 9.5945 26.636 15.6518 26.636C21.7078 26.636 26.6358 21.708 26.6358 15.6507C26.6358 9.59332 21.7078 4.66666 15.6518 4.66666ZM15.6518 28.636C8.49184 28.636 2.6665 22.8107 2.6665 15.6507C2.6665 8.49066 8.49184 2.66666 15.6518 2.66666C22.8118 2.66666 28.6358 8.49066 28.6358 15.6507C28.6358 22.8107 22.8118 28.636 15.6518 28.636Z" fill="black"/>
</g>
<mask id="mask1_626_1783" style="mask-type:luminance" maskUnits="userSpaceOnUse" x="22" y="23" width="8" height="8">
<path fill-rule="evenodd" clip-rule="evenodd" d="M22.9866 23.6093H29.6853V30.2956H22.9866V23.6093Z" fill="white"/>
</mask>
<g mask="url(#mask1_626_1783)">
<path fill-rule="evenodd" clip-rule="evenodd" d="M28.6856 30.2956C28.4309 30.2956 28.1749 30.1983 27.9789 30.0036L23.2802 25.3183C22.8896 24.9276 22.8882 24.2943 23.2789 23.9036C23.6682 23.5103 24.3016 23.5129 24.6936 23.9009L29.3922 28.5876C29.7829 28.9783 29.7842 29.6103 29.3936 30.0009C29.1989 30.1983 28.9416 30.2956 28.6856 30.2956Z" fill="black"/>
</g>
</svg>
