<svg width="213" height="213" viewBox="0 0 213 213" fill="none" xmlns="http://www.w3.org/2000/svg">
<rect width="212.154" height="212.176" fill="black"/>
<path d="M195.851 109.503C195.9 108.715 196.2 108.092 196.752 107.635C197.304 107.177 198.001 106.974 198.842 107.026L199.209 107.049C199.316 107.056 199.366 107.112 199.359 107.219L199.311 108.001C199.304 108.108 199.248 108.158 199.141 108.151L198.822 108.131C198.257 108.096 197.791 108.212 197.422 108.478C197.063 108.744 196.87 109.106 196.842 109.564C196.814 110.011 196.956 110.394 197.267 110.712C197.579 111.031 198.006 111.207 198.549 111.24C198.911 111.263 199.225 111.207 199.489 111.074C199.764 110.952 200.005 110.78 200.211 110.558C200.427 110.347 200.754 109.987 201.191 109.48C201.618 108.972 201.979 108.572 202.275 108.281C202.582 107.99 202.938 107.755 203.344 107.577C203.75 107.41 204.219 107.343 204.752 107.376C205.582 107.427 206.222 107.707 206.671 108.216C207.132 108.725 207.338 109.363 207.291 110.13C207.241 110.939 206.935 111.566 206.373 112.013C205.821 112.47 205.108 112.672 204.235 112.618L203.836 112.593C203.729 112.587 203.68 112.53 203.686 112.424L203.735 111.625C203.742 111.519 203.799 111.469 203.905 111.475L204.32 111.501C204.885 111.536 205.346 111.42 205.704 111.154C206.073 110.899 206.271 110.537 206.3 110.068C206.327 109.642 206.194 109.282 205.902 108.986C205.621 108.691 205.204 108.526 204.651 108.492C204.32 108.471 204.024 108.512 203.761 108.613C203.509 108.726 203.263 108.897 203.024 109.128C202.785 109.359 202.47 109.703 202.079 110.16C201.571 110.77 201.158 111.22 200.841 111.51C200.534 111.812 200.199 112.037 199.837 112.186C199.486 112.335 199.066 112.394 198.576 112.364C197.703 112.31 197.016 112.017 196.514 111.483C196.024 110.951 195.803 110.29 195.851 109.503Z" fill="white"/>
<path d="M206.624 119.582C206.61 119.688 206.551 119.734 206.445 119.721L205.778 119.635C205.672 119.622 205.626 119.562 205.64 119.456L205.908 117.362C205.913 117.319 205.895 117.295 205.852 117.29L195.949 116.024C195.843 116.01 195.797 115.951 195.81 115.845L195.914 115.035C195.927 114.93 195.987 114.883 196.093 114.897L205.996 116.163C206.039 116.169 206.062 116.15 206.068 116.108L206.319 114.14C206.333 114.034 206.393 113.988 206.498 114.001L207.165 114.087C207.271 114.1 207.317 114.16 207.303 114.266L206.624 119.582Z" fill="white"/>
<path d="M194.413 123.331C194.432 123.237 194.49 123.189 194.589 123.187L196.613 123.181C196.633 123.185 196.651 123.178 196.666 123.159C196.678 123.15 196.687 123.136 196.691 123.115L197.255 120.274C197.259 120.253 197.258 120.231 197.252 120.208C197.244 120.196 197.229 120.188 197.208 120.183L195.34 119.404C195.248 119.375 195.212 119.308 195.233 119.204L195.392 118.403C195.402 118.351 195.427 118.312 195.464 118.287C195.5 118.273 195.543 118.276 195.593 118.297L205.797 122.771C205.887 122.81 205.922 122.877 205.904 122.971L205.716 123.913C205.696 124.017 205.637 124.066 205.541 124.057L194.396 124.323L194.364 124.316C194.27 124.298 194.232 124.241 194.251 124.147L194.413 123.331ZM198.203 120.593C198.161 120.585 198.137 120.596 198.131 120.628L197.639 123.107C197.632 123.139 197.65 123.159 197.692 123.167L204.109 123.137C204.142 123.133 204.16 123.125 204.162 123.115C204.164 123.104 204.151 123.091 204.121 123.074L198.203 120.593Z" fill="white"/>
<path d="M193.243 129.491C193.268 129.398 193.325 129.348 193.416 129.339L198.614 129.037C198.647 129.035 198.668 129.018 198.676 128.987L199.035 127.642C199.046 127.601 199.031 127.575 198.99 127.564L194.26 126.301C194.157 126.274 194.119 126.209 194.146 126.106L194.357 125.317C194.384 125.214 194.45 125.176 194.553 125.204L205.065 128.01C205.168 128.037 205.206 128.103 205.178 128.206L204.497 130.756C204.296 131.509 203.856 132.042 203.175 132.358C202.505 132.676 201.727 132.716 200.841 132.48C200.171 132.301 199.633 132.003 199.225 131.585C198.818 131.167 198.582 130.685 198.519 130.138C198.519 130.094 198.498 130.071 198.454 130.071L193.165 130.464L193.099 130.463C193.027 130.444 193.003 130.388 193.028 130.295L193.243 129.491ZM203.951 128.955C203.962 128.913 203.947 128.887 203.906 128.876L199.995 127.832C199.954 127.821 199.928 127.836 199.917 127.878L199.545 129.269C199.419 129.743 199.497 130.173 199.781 130.557C200.075 130.945 200.526 131.22 201.134 131.382C201.742 131.545 202.27 131.531 202.718 131.341C203.166 131.152 203.453 130.82 203.58 130.346L203.951 128.955Z" fill="white"/>
<path d="M201.653 139.365C201.618 139.466 201.55 139.499 201.45 139.464L200.814 139.247C200.713 139.213 200.679 139.145 200.714 139.044L201.396 137.045C201.41 137.005 201.396 136.978 201.356 136.964L191.907 133.739C191.806 133.705 191.773 133.637 191.807 133.536L192.071 132.764C192.105 132.663 192.173 132.63 192.274 132.664L201.723 135.889C201.763 135.903 201.79 135.889 201.804 135.849L202.445 133.971C202.48 133.87 202.547 133.837 202.648 133.872L203.284 134.089C203.385 134.123 203.418 134.191 203.384 134.292L201.653 139.365Z" fill="white"/>
<path d="M189.833 139.325C190.156 138.57 190.676 138.072 191.393 137.834C192.11 137.595 192.895 137.658 193.748 138.022L201.178 141.198C201.276 141.24 201.304 141.31 201.262 141.408L200.942 142.158C200.9 142.256 200.83 142.284 200.732 142.242L193.184 139.017C192.645 138.786 192.151 138.732 191.705 138.854C191.254 138.986 190.934 139.273 190.746 139.715C190.553 140.166 190.564 140.6 190.781 141.017C190.997 141.434 191.374 141.758 191.914 141.989L199.461 145.214C199.56 145.256 199.588 145.326 199.546 145.424L199.225 146.175C199.183 146.273 199.113 146.301 199.015 146.259L191.585 143.084C190.732 142.719 190.146 142.19 189.827 141.497C189.504 140.814 189.506 140.09 189.833 139.325Z" fill="white"/>
<path d="M197.105 150.514C196.752 151.208 196.21 151.638 195.479 151.804C194.757 151.976 193.983 151.851 193.156 151.43C192.338 151.014 191.784 150.468 191.493 149.794C191.212 149.124 191.245 148.447 191.594 147.762L192.341 146.293C192.36 146.255 192.351 146.227 192.313 146.207L188.007 144.016C187.912 143.967 187.888 143.895 187.937 143.8L188.307 143.073C188.355 142.978 188.427 142.955 188.522 143.003L198.233 147.946C198.328 147.994 198.351 148.066 198.303 148.161L197.105 150.514ZM192.508 148.012C192.29 148.44 192.284 148.874 192.491 149.314C192.698 149.755 193.086 150.12 193.657 150.41C194.227 150.701 194.751 150.8 195.229 150.708C195.716 150.621 196.069 150.363 196.286 149.935L196.947 148.638C196.966 148.6 196.957 148.571 196.919 148.552L193.254 146.686C193.216 146.667 193.187 146.676 193.168 146.714L192.508 148.012Z" fill="white"/>
<path d="M192.994 157.423C193.085 157.479 193.103 157.552 193.048 157.643L192.633 158.327C192.578 158.419 192.505 158.437 192.413 158.381L183.107 152.745C183.016 152.689 182.998 152.616 183.054 152.525L183.543 151.717C183.587 151.644 183.654 151.616 183.743 151.633L192.435 153.25C192.468 153.258 192.485 153.249 192.487 153.226C192.498 153.207 192.49 153.19 192.463 153.173L185.42 148.926C185.329 148.871 185.311 148.798 185.366 148.707L185.789 148.009C185.844 147.917 185.918 147.899 186.009 147.955L195.315 153.592C195.406 153.647 195.424 153.72 195.369 153.811L194.888 154.605C194.844 154.678 194.777 154.706 194.687 154.689L185.974 153.078C185.941 153.07 185.919 153.076 185.908 153.094C185.906 153.118 185.918 153.138 185.946 153.154L192.994 157.423Z" fill="white"/>
<path d="M179.963 157.406C180.018 157.328 180.091 157.307 180.182 157.345L182.037 158.155C182.054 158.167 182.073 158.167 182.094 158.156C182.109 158.153 182.123 158.143 182.135 158.126L183.795 155.753C183.808 155.736 183.815 155.715 183.819 155.692C183.816 155.677 183.806 155.663 183.789 155.651L182.393 154.186C182.32 154.122 182.314 154.046 182.376 153.959L182.843 153.29C182.874 153.247 182.912 153.221 182.956 153.213C182.995 153.214 183.033 153.234 183.07 153.273L190.608 161.478C190.674 161.55 190.68 161.626 190.625 161.705L190.075 162.491C190.014 162.579 189.941 162.599 189.856 162.553L179.547 158.307L179.521 158.289C179.443 158.234 179.431 158.167 179.486 158.088L179.963 157.406ZM184.535 156.427C184.5 156.402 184.473 156.403 184.455 156.429L183.005 158.501C182.987 158.527 182.995 158.552 183.03 158.577L188.916 161.133C188.948 161.143 188.967 161.143 188.973 161.135C188.98 161.126 188.973 161.108 188.952 161.081L184.535 156.427Z" fill="white"/>
<path d="M184.615 169.901C184.548 169.984 184.473 169.992 184.39 169.925L183.866 169.505C183.783 169.438 183.775 169.363 183.841 169.28L185.163 167.633C185.19 167.6 185.187 167.57 185.153 167.543L177.367 161.294C177.284 161.227 177.276 161.152 177.342 161.069L177.853 160.432C177.92 160.349 177.995 160.341 178.078 160.408L185.864 166.657C185.898 166.684 185.928 166.68 185.954 166.647L187.196 165.1C187.263 165.017 187.338 165.008 187.421 165.075L187.945 165.496C188.028 165.562 188.037 165.637 187.97 165.721L184.615 169.901Z" fill="white"/>
<path d="M175.225 163.659C175.295 163.579 175.37 163.574 175.451 163.644L183.657 170.788C183.737 170.858 183.742 170.933 183.672 171.014L183.136 171.629C183.066 171.71 182.991 171.715 182.911 171.645L174.705 164.501C174.624 164.431 174.619 164.355 174.689 164.275L175.225 163.659Z" fill="white"/>
<path d="M171.214 168.289C171.797 167.711 172.45 167.423 173.174 167.425C173.891 167.435 174.546 167.739 175.139 168.337L179.265 172.493C179.859 173.091 180.158 173.749 180.163 174.465C180.161 175.189 179.868 175.841 179.285 176.419C178.694 177.005 178.037 177.297 177.313 177.295C176.589 177.292 175.93 176.992 175.336 176.394L171.211 172.238C170.625 171.647 170.329 170.986 170.324 170.255C170.327 169.531 170.623 168.875 171.214 168.289ZM171.913 168.993C171.564 169.339 171.397 169.731 171.411 170.168C171.424 170.621 171.611 171.029 171.972 171.392L176.176 175.627C176.545 175.998 176.951 176.188 177.396 176.197C177.841 176.222 178.238 176.061 178.586 175.715C178.927 175.377 179.086 174.985 179.065 174.54C179.052 174.103 178.861 173.699 178.493 173.328L174.288 169.092C173.927 168.729 173.525 168.535 173.08 168.511C172.642 168.494 172.253 168.655 171.913 168.993Z" fill="white"/>
<path d="M171.65 183.051C171.719 183.133 171.713 183.208 171.632 183.277L171.023 183.796C170.942 183.865 170.867 183.859 170.798 183.777L163.743 175.494C163.674 175.413 163.68 175.338 163.762 175.269L164.48 174.657C164.545 174.601 164.617 174.596 164.697 174.64L172.436 178.915C172.465 178.932 172.484 178.93 172.493 178.908C172.509 178.894 172.507 178.875 172.486 178.851L167.142 172.6C167.073 172.519 167.079 172.444 167.16 172.374L167.781 171.845C167.863 171.776 167.938 171.782 168.007 171.863L175.061 180.147C175.13 180.228 175.124 180.303 175.043 180.372L174.336 180.974C174.272 181.029 174.199 181.035 174.119 180.991L166.358 176.714C166.329 176.696 166.307 176.695 166.291 176.708C166.281 176.73 166.287 176.754 166.308 176.778L171.65 183.051Z" fill="white"/>
<path d="M160.401 178.274C160.615 178.115 160.841 178.053 161.08 178.088C161.31 178.129 161.502 178.253 161.654 178.458C161.814 178.672 161.877 178.891 161.844 179.115C161.809 179.353 161.684 179.552 161.471 179.712C161.265 179.865 161.043 179.923 160.804 179.888C160.572 179.862 160.376 179.742 160.217 179.528C160.064 179.323 160.005 179.1 160.04 178.862C160.075 178.623 160.195 178.427 160.401 178.274Z" fill="white"/>
<path d="M154.041 182.023C154.719 181.619 155.402 181.516 156.091 181.714C156.781 181.912 157.341 182.373 157.772 183.097L157.96 183.413C158.015 183.505 157.996 183.578 157.905 183.633L157.231 184.034C157.14 184.088 157.066 184.07 157.012 183.978L156.848 183.703C156.559 183.218 156.2 182.897 155.773 182.742C155.351 182.596 154.942 182.641 154.548 182.876C154.164 183.105 153.927 183.438 153.84 183.875C153.753 184.312 153.848 184.764 154.127 185.231C154.312 185.543 154.535 185.771 154.794 185.914C155.05 186.072 155.327 186.174 155.627 186.219C155.923 186.278 156.404 186.345 157.07 186.421C157.73 186.487 158.264 186.56 158.672 186.64C159.085 186.729 159.48 186.891 159.856 187.126C160.223 187.367 160.543 187.717 160.815 188.175C161.241 188.89 161.371 189.576 161.204 190.234C161.043 190.901 160.632 191.431 159.973 191.824C159.276 192.239 158.585 192.341 157.9 192.128C157.211 191.93 156.642 191.455 156.195 190.704L155.99 190.36C155.936 190.269 155.954 190.196 156.046 190.141L156.733 189.732C156.825 189.677 156.898 189.696 156.952 189.787L157.165 190.145C157.455 190.63 157.81 190.946 158.232 191.092C158.651 191.252 159.062 191.212 159.465 190.972C159.831 190.754 160.055 190.441 160.135 190.033C160.22 189.635 160.121 189.197 159.837 188.721C159.668 188.437 159.467 188.215 159.235 188.055C159 187.909 158.719 187.803 158.394 187.736C158.068 187.67 157.607 187.603 157.009 187.537C156.219 187.462 155.614 187.375 155.196 187.276C154.774 187.193 154.399 187.043 154.072 186.828C153.751 186.622 153.465 186.309 153.214 185.887C152.766 185.136 152.621 184.403 152.779 183.688C152.942 182.982 153.363 182.427 154.041 182.023Z" fill="white"/>
<path d="M151.572 196.649C151.477 196.697 151.406 196.674 151.357 196.579L151.052 195.98C151.004 195.885 151.027 195.813 151.122 195.765L153.005 194.807C153.043 194.787 153.052 194.759 153.033 194.721L148.504 185.823C148.455 185.728 148.479 185.656 148.574 185.608L149.301 185.238C149.396 185.189 149.468 185.213 149.516 185.308L154.045 194.205C154.064 194.243 154.093 194.253 154.131 194.233L155.899 193.333C155.994 193.285 156.066 193.308 156.114 193.403L156.419 194.002C156.468 194.097 156.444 194.169 156.349 194.218L151.572 196.649Z" fill="white"/>
<path d="M141.923 188.576C142.011 188.538 142.084 188.559 142.141 188.639L143.289 190.306C143.297 190.326 143.313 190.337 143.337 190.338C143.351 190.344 143.368 190.342 143.387 190.334L146.05 189.196C146.07 189.187 146.088 189.174 146.103 189.156C146.109 189.142 146.107 189.125 146.099 189.105L145.687 187.124C145.659 187.031 145.694 186.964 145.792 186.922L146.543 186.602C146.592 186.581 146.637 186.579 146.679 186.595C146.711 186.616 146.733 186.654 146.744 186.707L148.813 197.655C148.831 197.751 148.796 197.819 148.708 197.856L147.825 198.234C147.727 198.275 147.654 198.254 147.606 198.17L141.094 189.121L141.082 189.092C141.044 189.004 141.069 188.941 141.158 188.903L141.923 188.576ZM146.323 190.158C146.306 190.119 146.283 190.106 146.253 190.118L143.929 191.112C143.899 191.124 143.893 191.15 143.91 191.189L147.558 196.468C147.58 196.494 147.596 196.504 147.606 196.5C147.616 196.496 147.619 196.477 147.617 196.443L146.323 190.158Z" fill="white"/>
<path d="M135.556 190.932C135.647 190.9 135.721 190.92 135.779 190.99L138.952 195.118C138.973 195.144 138.998 195.152 139.028 195.142L140.342 194.682C140.383 194.668 140.396 194.641 140.382 194.601L138.765 189.979C138.73 189.879 138.763 189.811 138.864 189.775L139.634 189.506C139.734 189.471 139.802 189.504 139.838 189.604L143.429 199.874C143.464 199.975 143.432 200.043 143.331 200.078L140.839 200.95C140.104 201.207 139.415 201.143 138.772 200.757C138.132 200.382 137.661 199.762 137.358 198.896C137.129 198.241 137.073 197.628 137.189 197.056C137.306 196.484 137.572 196.018 137.988 195.658C138.025 195.634 138.031 195.603 138.007 195.567L134.708 191.415L134.672 191.36C134.647 191.29 134.68 191.238 134.771 191.207L135.556 190.932ZM142.022 199.485C142.062 199.471 142.075 199.444 142.061 199.404L140.725 195.582C140.711 195.542 140.684 195.529 140.643 195.543L139.284 196.019C138.821 196.181 138.51 196.487 138.351 196.938C138.196 197.399 138.222 197.927 138.43 198.521C138.638 199.115 138.946 199.544 139.355 199.808C139.763 200.071 140.199 200.122 140.663 199.96L142.022 199.485Z" fill="white"/>
<path d="M133.023 204.183C132.92 204.212 132.854 204.175 132.826 204.072L132.645 203.425C132.616 203.322 132.653 203.256 132.756 203.228L134.79 202.66C134.831 202.648 134.846 202.622 134.835 202.581L132.15 192.965C132.122 192.862 132.159 192.796 132.261 192.768L133.047 192.548C133.15 192.519 133.216 192.556 133.244 192.659L135.929 202.276C135.94 202.317 135.967 202.331 136.008 202.32L137.919 201.787C138.021 201.758 138.087 201.795 138.116 201.898L138.296 202.545C138.325 202.648 138.288 202.713 138.185 202.742L133.023 204.183Z" fill="white"/>
<path d="M126.292 194.096C127.098 193.936 127.801 194.084 128.403 194.541C129.005 194.998 129.396 195.681 129.577 196.592L131.152 204.517C131.173 204.621 131.131 204.684 131.026 204.705L130.226 204.864C130.121 204.885 130.058 204.843 130.038 204.738L128.438 196.688C128.324 196.112 128.09 195.675 127.737 195.375C127.373 195.077 126.956 194.975 126.485 195.069C126.004 195.165 125.652 195.419 125.43 195.833C125.208 196.247 125.154 196.742 125.268 197.317L126.867 205.368C126.888 205.473 126.846 205.535 126.742 205.556L125.941 205.715C125.837 205.736 125.774 205.694 125.753 205.589L124.179 197.664C123.998 196.754 124.104 195.972 124.496 195.317C124.877 194.665 125.476 194.258 126.292 194.096Z" fill="white"/>
<path d="M120.643 205.93C119.871 206.028 119.21 205.823 118.661 205.312C118.113 204.812 117.78 204.102 117.663 203.182C117.546 202.272 117.685 201.506 118.079 200.886C118.474 200.277 119.052 199.923 119.814 199.826L121.449 199.617C121.491 199.611 121.51 199.587 121.504 199.545L120.892 194.752C120.878 194.646 120.924 194.587 121.03 194.573L121.839 194.469C121.945 194.456 122.005 194.502 122.018 194.608L123.4 205.416C123.414 205.522 123.368 205.581 123.262 205.595L120.643 205.93ZM120.122 200.722C119.646 200.783 119.284 201.022 119.037 201.441C118.789 201.86 118.706 202.387 118.787 203.022C118.868 203.656 119.082 204.145 119.426 204.488C119.773 204.842 120.184 204.988 120.66 204.927L122.104 204.743C122.147 204.737 122.165 204.714 122.16 204.671L121.638 200.592C121.633 200.55 121.609 200.532 121.567 200.537L120.122 200.722Z" fill="white"/>
<path d="M112.262 206.527C112.268 206.634 112.218 206.69 112.111 206.696L111.312 206.739C111.206 206.745 111.15 206.694 111.144 206.588L110.557 195.724C110.551 195.617 110.601 195.561 110.708 195.555L111.65 195.504C111.736 195.5 111.796 195.539 111.833 195.623L115.395 203.714C115.407 203.745 115.424 203.755 115.445 203.743C115.466 203.742 115.476 203.726 115.474 203.694L115.014 195.483C115.008 195.376 115.059 195.32 115.165 195.314L115.98 195.27C116.087 195.264 116.143 195.315 116.148 195.421L116.736 206.285C116.742 206.392 116.691 206.448 116.585 206.454L115.658 206.504C115.573 206.509 115.512 206.469 115.475 206.386L111.896 198.279C111.884 198.248 111.867 198.233 111.846 198.234C111.825 198.245 111.816 198.267 111.817 198.299L112.262 206.527Z" fill="white"/>
<path d="M105.026 196.095C105.122 196.096 105.18 196.145 105.199 196.242L105.569 198.232C105.568 198.253 105.579 198.269 105.6 198.28C105.61 198.291 105.626 198.296 105.648 198.297L108.543 198.341C108.565 198.342 108.586 198.337 108.608 198.326C108.618 198.316 108.624 198.3 108.624 198.279L109.055 196.301C109.067 196.205 109.127 196.158 109.233 196.16L110.049 196.172C110.102 196.173 110.145 196.19 110.176 196.222C110.197 196.255 110.202 196.297 110.19 196.351L107.623 207.192C107.6 207.288 107.54 207.335 107.444 207.334L106.485 207.319C106.378 207.317 106.32 207.268 106.311 207.172L104.047 196.256L104.048 196.224C104.049 196.128 104.098 196.081 104.194 196.082L105.026 196.095ZM108.4 199.331C108.401 199.289 108.385 199.267 108.353 199.267L105.825 199.228C105.793 199.227 105.777 199.248 105.776 199.291L106.959 205.598C106.969 205.63 106.98 205.646 106.99 205.646C107.001 205.647 107.012 205.631 107.023 205.599L108.4 199.331Z" fill="white"/>
<path d="M97.4982 206.901C97.3919 206.892 97.3431 206.835 97.3517 206.729L97.4061 206.059C97.4147 205.953 97.4722 205.904 97.5785 205.912L99.6836 206.083C99.7261 206.087 99.7491 206.067 99.7525 206.025L100.56 196.073C100.569 195.967 100.626 195.918 100.733 195.927L101.546 195.993C101.652 196.001 101.701 196.059 101.693 196.165L100.885 206.117C100.881 206.159 100.901 206.182 100.943 206.185L102.921 206.346C103.027 206.355 103.076 206.412 103.067 206.518L103.013 207.188C103.004 207.295 102.947 207.343 102.841 207.335L97.4982 206.901Z" fill="white"/>
<path d="M96.7584 196.134C96.8643 196.146 96.9109 196.206 96.8982 196.312L95.6014 207.114C95.5887 207.22 95.5294 207.267 95.4235 207.254L94.6133 207.157C94.5074 207.144 94.4608 207.085 94.4735 206.979L95.7703 196.176C95.783 196.07 95.8423 196.024 95.9482 196.036L96.7584 196.134Z" fill="white"/>
<path d="M91.6712 194.651C92.4774 194.808 93.0828 195.187 93.4875 195.787C93.8818 196.386 93.9984 197.098 93.8373 197.925L92.7182 203.674C92.5572 204.501 92.1817 205.118 91.5917 205.524C90.9913 205.929 90.288 206.053 89.4818 205.896C88.6651 205.737 88.0545 205.357 87.6497 204.757C87.245 204.156 87.1232 203.443 87.2842 202.616L88.4034 196.867C88.5624 196.051 88.9431 195.435 89.5456 195.02C90.146 194.615 90.8545 194.492 91.6712 194.651ZM91.4816 195.625C91 195.531 90.582 195.613 90.2277 195.87C89.8609 196.135 89.6285 196.519 89.5307 197.022L88.3901 202.88C88.2902 203.393 88.3615 203.836 88.604 204.209C88.834 204.591 89.1898 204.828 89.6714 204.922C90.1425 205.014 90.5563 204.926 90.9127 204.659C91.267 204.402 91.4941 204.017 91.594 203.504L92.7345 197.646C92.8324 197.143 92.7663 196.701 92.5363 196.319C92.3043 195.948 91.9528 195.717 91.4816 195.625Z" fill="white"/>
<path d="M80.0392 203.9C80.0109 204.003 79.9453 204.04 79.8425 204.012L79.0711 203.8C78.9683 203.771 78.931 203.706 78.9593 203.603L81.8449 193.112C81.8731 193.01 81.9387 192.972 82.0416 193.001L82.9517 193.251C83.034 193.274 83.0793 193.33 83.0875 193.421L83.9019 202.224C83.9037 202.258 83.9163 202.273 83.9397 202.268C83.9602 202.274 83.9748 202.261 83.9833 202.23L86.149 194.296C86.1773 194.194 86.2428 194.156 86.3457 194.185L87.1325 194.401C87.2353 194.429 87.2726 194.495 87.2443 194.598L84.3587 205.088C84.3304 205.191 84.2649 205.228 84.162 205.2L83.2673 204.954C83.185 204.931 83.1397 204.874 83.1315 204.784L82.3059 195.961C82.3041 195.927 82.293 195.907 82.2724 195.902C82.249 195.906 82.2331 195.924 82.2246 195.955L80.0392 203.9Z" fill="white"/>
<path d="M76.9904 191.601C77.2421 191.689 77.4204 191.842 77.5251 192.06C77.6198 192.273 77.6249 192.501 77.5404 192.743C77.4524 192.995 77.3064 193.17 77.1026 193.268C76.8851 193.373 76.6506 193.381 76.3989 193.293C76.1572 193.208 75.984 193.057 75.8792 192.84C75.771 192.633 75.7608 192.403 75.8489 192.151C75.9334 191.91 76.0843 191.736 76.3018 191.632C76.5192 191.527 76.7488 191.517 76.9904 191.601Z" fill="white"/>
<path d="M70.0306 188.171C70.7443 188.508 71.2115 189.018 71.432 189.7C71.6526 190.382 71.583 191.104 71.2232 191.866L71.066 192.199C71.0205 192.295 70.9495 192.321 70.853 192.275L70.1441 191.94C70.0476 191.895 70.0222 191.824 70.0677 191.727L70.2044 191.438C70.4457 190.927 70.5113 190.45 70.4012 190.009C70.2865 189.578 70.0218 189.264 69.607 189.068C69.2019 188.877 68.7937 188.867 68.3825 189.038C67.9712 189.21 67.6495 189.542 67.4172 190.033C67.2623 190.361 67.1978 190.673 67.2235 190.968C67.2351 191.269 67.3059 191.556 67.4362 191.829C67.5522 192.108 67.7648 192.545 68.074 193.139C68.3878 193.724 68.6253 194.208 68.7867 194.59C68.9434 194.983 69.0292 195.401 69.0439 195.844C69.049 196.283 68.9377 196.744 68.71 197.226C68.3548 197.978 67.8577 198.469 67.2187 198.698C66.5752 198.937 65.9062 198.892 65.2117 198.564C64.4786 198.218 64.0089 197.702 63.8026 197.014C63.582 196.332 63.6585 195.596 64.0319 194.805L64.2027 194.443C64.2483 194.347 64.3193 194.321 64.4157 194.367L65.1391 194.708C65.2356 194.754 65.261 194.825 65.2155 194.921L65.0379 195.298C64.7965 195.809 64.7332 196.28 64.8479 196.712C64.9484 197.148 65.2108 197.467 65.6352 197.667C66.021 197.85 66.4054 197.86 66.7882 197.699C67.1665 197.547 67.4741 197.22 67.7109 196.719C67.8521 196.42 67.9243 196.13 67.9275 195.848C67.9165 195.571 67.8479 195.28 67.7217 194.972C67.5955 194.665 67.3928 194.245 67.1136 193.712C66.7352 193.014 66.4699 192.464 66.3177 192.062C66.1513 191.665 66.0661 191.271 66.0621 190.88C66.0535 190.498 66.1539 190.086 66.3634 189.642C66.7369 188.851 67.2641 188.322 67.9452 188.053C68.6217 187.795 69.3168 187.834 70.0306 188.171Z" fill="white"/>
<path d="M56.1891 194.033C56.0959 193.981 56.0752 193.909 56.1271 193.815L56.4538 193.228C56.5057 193.135 56.5782 193.114 56.6715 193.166L58.517 194.193C58.5542 194.214 58.5833 194.206 58.604 194.168L63.4587 185.444C63.5105 185.351 63.5831 185.33 63.6763 185.382L64.3893 185.779C64.4825 185.831 64.5032 185.903 64.4513 185.996L59.5967 194.721C59.5759 194.758 59.5842 194.787 59.6215 194.808L61.3551 195.772C61.4484 195.824 61.469 195.897 61.4172 195.99L61.0904 196.577C61.0385 196.67 60.966 196.691 60.8728 196.639L56.1891 194.033Z" fill="white"/>
<path d="M57.3275 181.821C57.4081 181.873 57.4313 181.945 57.3971 182.038L56.6557 183.921C56.6441 183.939 56.6444 183.958 56.6565 183.978C56.6596 183.993 56.6702 184.006 56.6881 184.018L59.12 185.59C59.1379 185.602 59.1587 185.609 59.1824 185.612C59.1972 185.609 59.2103 185.598 59.2219 185.58L60.6351 184.131C60.6962 184.056 60.7715 184.048 60.8611 184.106L61.5463 184.549C61.5911 184.578 61.6182 184.615 61.6277 184.659C61.6283 184.697 61.6096 184.736 61.5717 184.775L53.6485 192.608C53.5785 192.677 53.5031 192.686 53.4225 192.634L52.6164 192.112C52.5268 192.054 52.5036 191.982 52.5468 191.896L56.4123 181.439L56.4297 181.412C56.4818 181.331 56.5482 181.317 56.6288 181.369L57.3275 181.821ZM58.4738 186.354C58.497 186.318 58.4952 186.292 58.4683 186.274L56.3454 184.901C56.3186 184.884 56.2935 184.893 56.2704 184.929L53.9309 190.904C53.9225 190.937 53.9227 190.956 53.9317 190.962C53.9406 190.968 53.9583 190.96 53.9846 190.939L58.4738 186.354Z" fill="white"/>
<path d="M52.1892 177.978C52.2662 178.036 52.2921 178.108 52.2668 178.196L50.6241 183.136C50.6135 183.168 50.6211 183.194 50.6467 183.213L51.7634 184.044C51.7976 184.069 51.8275 184.065 51.8529 184.031L54.7762 180.103C54.8399 180.018 54.9145 180.007 55.0001 180.07L55.6547 180.558C55.7402 180.621 55.7512 180.696 55.6875 180.781L49.1913 189.509C49.1277 189.595 49.053 189.606 48.9675 189.542L46.8497 187.966C46.2251 187.501 45.8922 186.894 45.851 186.145C45.8035 185.405 46.0536 184.667 46.6013 183.932C47.0153 183.375 47.4918 182.985 48.0307 182.761C48.5696 182.538 49.1049 182.497 49.6366 182.64C49.6772 182.657 49.706 182.645 49.7229 182.605L51.314 177.546L51.3394 177.485C51.384 177.425 51.4448 177.424 51.5218 177.481L52.1892 177.978ZM48.7255 188.125C48.7597 188.151 48.7896 188.146 48.815 188.112L51.232 184.865C51.2575 184.831 51.2531 184.801 51.2189 184.775L50.0637 183.916C49.6701 183.623 49.242 183.537 48.7796 183.658C48.3107 183.788 47.8884 184.105 47.5126 184.61C47.1369 185.115 46.9541 185.61 46.9645 186.097C46.9748 186.583 47.1767 186.973 47.5703 187.266L48.7255 188.125Z" fill="white"/>
<path d="M40.6494 182.59C40.5682 182.521 40.5622 182.446 40.6313 182.364L41.067 181.853C41.1362 181.772 41.2114 181.766 41.2926 181.835L42.9005 183.204C42.933 183.232 42.9631 183.229 42.9907 183.197L49.464 175.596C49.5331 175.514 49.6083 175.508 49.6895 175.578L50.3108 176.107C50.392 176.176 50.398 176.251 50.3288 176.332L43.8556 183.933C43.8279 183.966 43.8304 183.996 43.8628 184.024L45.3733 185.31C45.4545 185.379 45.4606 185.454 45.3914 185.535L44.9557 186.047C44.8865 186.128 44.8114 186.134 44.7301 186.065L40.6494 182.59Z" fill="white"/>
<path d="M44.8256 172.059C45.4085 172.637 45.6787 173.304 45.6362 174.058C45.5937 174.813 45.2455 175.519 44.5917 176.178L38.8991 181.912C38.8239 181.988 38.7485 181.988 38.6728 181.913L38.0937 181.338C38.018 181.263 38.0177 181.187 38.0929 181.112L43.8757 175.287C44.289 174.87 44.5212 174.432 44.5724 173.972C44.6159 173.504 44.4674 173.101 44.1267 172.763C43.7785 172.417 43.3707 172.268 42.9032 172.315C42.4357 172.362 41.9954 172.593 41.582 173.01L35.7992 178.835C35.7241 178.91 35.6486 178.911 35.5729 178.835L34.9939 178.261C34.9182 178.185 34.9179 178.11 34.993 178.034L40.6857 172.3C41.3395 171.642 42.0472 171.292 42.8088 171.252C43.5629 171.204 44.2352 171.473 44.8256 172.059Z" fill="white"/>
<path d="M31.1332 174.059C30.6176 173.475 30.4168 172.813 30.5306 172.072C30.6365 171.338 31.0372 170.664 31.7326 170.049C32.4201 169.442 33.131 169.127 33.8654 169.104C34.5919 169.089 35.2093 169.369 35.7178 169.944L36.8089 171.179C36.8372 171.211 36.8673 171.213 36.8993 171.185L40.5205 167.986C40.6004 167.915 40.6757 167.92 40.7463 168L41.2866 168.611C41.3572 168.691 41.3525 168.766 41.2726 168.837L33.107 176.051C33.027 176.122 32.9517 176.117 32.8811 176.037L31.1332 174.059ZM35.1495 170.703C34.8317 170.343 34.43 170.178 33.9445 170.209C33.4589 170.239 32.9764 170.466 32.4967 170.89C32.0171 171.314 31.7323 171.765 31.6423 172.243C31.5442 172.728 31.6541 173.15 31.9719 173.51L32.936 174.601C32.9642 174.633 32.9943 174.635 33.0263 174.607L36.1079 171.884C36.1399 171.856 36.1417 171.826 36.1135 171.794L35.1495 170.703Z" fill="white"/>
<path d="M26.6882 167.69C26.6034 167.755 26.5286 167.745 26.464 167.66L25.9793 167.023C25.9147 166.939 25.9249 166.864 26.0097 166.799L34.6659 160.208C34.7508 160.143 34.8255 160.153 34.8901 160.238L35.462 160.989C35.5137 161.057 35.5153 161.13 35.4668 161.207L30.7757 168.7C30.7567 168.728 30.7579 168.748 30.7793 168.758C30.7922 168.775 30.8114 168.774 30.8369 168.754L37.3703 163.759C37.4551 163.695 37.5299 163.705 37.5945 163.79L38.0888 164.439C38.1535 164.524 38.1433 164.599 38.0585 164.663L29.4023 171.255C29.3174 171.319 29.2427 171.309 29.1781 171.224L28.6159 170.486C28.5642 170.418 28.5626 170.345 28.6111 170.268L33.3052 162.752C33.3242 162.724 33.3272 162.702 33.3143 162.685C33.2929 162.675 33.2695 162.679 33.244 162.698L26.6882 167.69Z" fill="white"/>
<path d="M31.5248 155.859C31.5778 155.939 31.5702 156.014 31.502 156.085L30.0687 157.514C30.051 157.526 30.0435 157.544 30.0464 157.567C30.0434 157.582 30.0478 157.598 30.0596 157.616L31.6587 160.031C31.6705 160.048 31.6867 160.063 31.7074 160.075C31.7222 160.078 31.7385 160.074 31.7563 160.062L33.6312 159.3C33.7171 159.256 33.7896 159.278 33.8485 159.367L34.2991 160.047C34.3285 160.092 34.3387 160.136 34.3297 160.181C34.3148 160.216 34.2822 160.244 34.2318 160.265L23.8357 164.272C23.7439 164.307 23.6715 164.284 23.6185 164.204L23.0884 163.404C23.0295 163.315 23.0371 163.24 23.1113 163.178L30.8391 155.142L30.8658 155.125C30.9459 155.072 31.0124 155.085 31.0654 155.165L31.5248 155.859ZM30.761 160.472C30.7966 160.448 30.8055 160.423 30.7878 160.396L29.3919 158.289C29.3742 158.262 29.3476 158.26 29.312 158.284L24.7764 162.823C24.7557 162.85 24.7482 162.868 24.7541 162.876C24.76 162.885 24.7792 162.885 24.8118 162.877L30.761 160.472Z" fill="white"/>
<path d="M18.3152 155.53C18.2623 155.437 18.2822 155.364 18.3748 155.312L18.9584 154.978C19.051 154.925 19.1238 154.945 19.1767 155.038L20.224 156.872C20.2451 156.909 20.2742 156.917 20.3113 156.896L28.9813 151.945C29.0739 151.892 29.1467 151.912 29.1996 152.004L29.6042 152.713C29.6571 152.806 29.6372 152.878 29.5446 152.931L20.8746 157.882C20.8376 157.903 20.8296 157.933 20.8508 157.97L21.8346 159.692C21.8875 159.785 21.8676 159.858 21.775 159.911L21.1914 160.244C21.0988 160.297 21.0261 160.277 20.9732 160.184L18.3152 155.53Z" fill="white"/>
<path d="M27.7236 149.598C27.773 149.692 27.7505 149.764 27.656 149.814L18.0151 154.856C17.9206 154.906 17.8487 154.883 17.7992 154.789L17.421 154.066C17.3716 153.971 17.3941 153.899 17.4886 153.85L27.1295 148.807C27.224 148.758 27.296 148.78 27.3454 148.875L27.7236 149.598Z" fill="white"/>
<path d="M24.5571 144.498C24.8798 145.253 24.9064 145.967 24.6368 146.639C24.363 147.301 23.8387 147.798 23.0638 148.129L17.679 150.43C16.9041 150.762 16.1828 150.797 15.515 150.537C14.8429 150.268 14.3455 149.755 14.0228 149C13.6958 148.235 13.6671 147.517 13.9367 146.845C14.2063 146.173 14.7285 145.671 15.5034 145.34L20.8883 143.038C21.6533 142.711 22.3768 142.681 23.0586 142.946C23.7306 143.216 24.2301 143.733 24.5571 144.498ZM23.6449 144.888C23.452 144.437 23.1498 144.137 22.7382 143.988C22.3126 143.833 21.8643 143.857 21.3935 144.058L15.9057 146.403C15.4251 146.609 15.0984 146.916 14.9257 147.327C14.7391 147.731 14.7421 148.159 14.935 148.61C15.1236 149.052 15.4286 149.345 15.8501 149.489C16.2617 149.638 16.7078 149.61 17.1884 149.405L22.6763 147.059C23.1471 146.858 23.4758 146.555 23.6625 146.151C23.8394 145.75 23.8335 145.329 23.6449 144.888Z" fill="white"/>
<path d="M11.029 139.244C10.9281 139.278 10.8604 139.245 10.8259 139.144L10.5675 138.387C10.5331 138.286 10.5663 138.218 10.6673 138.184L20.9641 134.67C21.0651 134.635 21.1328 134.668 21.1672 134.769L21.4721 135.663C21.4997 135.744 21.4783 135.813 21.4078 135.871L14.587 141.495C14.5601 141.516 14.5552 141.534 14.5722 141.551C14.5791 141.571 14.5976 141.576 14.6279 141.566L22.406 138.894C22.5069 138.86 22.5746 138.893 22.6091 138.994L22.8726 139.766C22.9071 139.867 22.8738 139.935 22.7729 139.969L12.476 143.484C12.3751 143.518 12.3074 143.485 12.2729 143.384L11.9732 142.506C11.9456 142.425 11.9671 142.356 12.0375 142.298L18.8684 136.653C18.8952 136.632 18.9052 136.612 18.8983 136.592C18.8813 136.575 18.8577 136.572 18.8274 136.582L11.029 139.244Z" fill="white"/>
<path d="M19.1898 130.589C19.2586 130.847 19.2326 131.08 19.1117 131.289C18.988 131.488 18.8026 131.62 18.5552 131.686C18.2976 131.755 18.0708 131.733 17.875 131.619C17.6661 131.498 17.5272 131.309 17.4585 131.051C17.3924 130.804 17.4199 130.576 17.5407 130.367C17.6513 130.161 17.8354 130.023 18.0931 129.955C18.3404 129.889 18.5685 129.916 18.7774 130.037C18.9863 130.158 19.1238 130.342 19.1898 130.589Z" fill="white"/>
<path d="M17.5583 122.354C17.6824 123.134 17.5249 123.807 17.0859 124.373C16.6468 124.94 16.0112 125.29 15.179 125.422L14.8156 125.48C14.7103 125.497 14.6492 125.453 14.6325 125.347L14.5092 124.573C14.4924 124.468 14.5367 124.407 14.6421 124.39L14.9581 124.339C15.5164 124.251 15.9467 124.036 16.2491 123.697C16.5409 123.358 16.6508 122.963 16.5787 122.51C16.5082 122.068 16.2863 121.725 15.9128 121.482C15.5392 121.239 15.0839 121.16 14.5466 121.246C14.1885 121.303 13.8947 121.425 13.6654 121.613C13.4238 121.792 13.2267 122.012 13.074 122.274C12.909 122.527 12.6683 122.949 12.3519 123.539C12.046 124.128 11.7804 124.597 11.5551 124.946C11.3193 125.297 11.0225 125.603 10.6646 125.865C10.305 126.117 9.86187 126.285 9.33516 126.369C8.51351 126.499 7.82794 126.366 7.27845 125.967C6.71843 125.57 6.37805 124.992 6.25732 124.234C6.12989 123.433 6.29179 122.754 6.74304 122.196C7.18208 121.629 7.83349 121.277 8.69728 121.14L9.09231 121.077C9.19765 121.06 9.25871 121.105 9.27547 121.21L9.40123 122C9.418 122.105 9.37371 122.166 9.26837 122.183L8.85755 122.248C8.29924 122.337 7.87418 122.551 7.58236 122.889C7.27834 123.218 7.16321 123.614 7.23699 124.078C7.30406 124.499 7.51214 124.823 7.86122 125.048C8.19977 125.275 8.64293 125.345 9.1907 125.258C9.51726 125.206 9.79772 125.101 10.0321 124.945C10.2543 124.78 10.4567 124.559 10.6393 124.282C10.822 124.004 11.0546 123.6 11.3373 123.069C11.7002 122.363 12.0048 121.834 12.2512 121.481C12.4853 121.12 12.7627 120.828 13.0835 120.604C13.3938 120.382 13.7912 120.232 14.2758 120.155C15.1396 120.017 15.8742 120.154 16.4797 120.565C17.0747 120.978 17.4342 121.575 17.5583 122.354Z" fill="white"/>
<path d="M5.37303 115.694C5.36317 115.588 5.41135 115.53 5.51756 115.52L6.18668 115.458C6.29289 115.448 6.35093 115.496 6.36078 115.603L6.55597 117.706C6.55991 117.748 6.58313 117.767 6.62561 117.763L16.5669 116.841C16.6731 116.831 16.7311 116.879 16.741 116.985L16.8164 117.798C16.8263 117.904 16.7781 117.962 16.6719 117.972L6.7306 118.895C6.68811 118.898 6.66884 118.922 6.67279 118.964L6.85614 120.94C6.866 121.046 6.81782 121.104 6.71161 121.114L6.04249 121.176C5.93628 121.186 5.87824 121.138 5.86839 121.031L5.37303 115.694Z" fill="white"/>
<path d="M16.0029 109.37C16.0055 109.466 15.9591 109.526 15.8637 109.55L13.8913 110.003C13.8699 110.004 13.8542 110.015 13.8441 110.036C13.8338 110.047 13.8289 110.063 13.8294 110.085L13.9077 112.98C13.9083 113.001 13.9142 113.022 13.9254 113.043C13.9364 113.054 13.9525 113.058 13.9738 113.058L15.9679 113.404C16.0642 113.412 16.1137 113.47 16.1166 113.576L16.1386 114.392C16.1401 114.445 16.1252 114.488 16.0941 114.521C16.0627 114.543 16.0202 114.55 15.9666 114.541L5.02573 112.435C4.92919 112.417 4.87962 112.359 4.87703 112.263L4.8511 111.304C4.84821 111.197 4.89461 111.137 4.99029 111.124L15.8006 108.399L15.8326 108.398C15.9286 108.395 15.9779 108.442 15.9804 108.538L16.0029 109.37ZM12.9126 112.878C12.9552 112.877 12.9761 112.861 12.9753 112.829L12.907 110.302C12.9061 110.27 12.8843 110.254 12.8417 110.255L6.59057 111.705C6.55887 111.716 6.54316 111.727 6.54345 111.738C6.54374 111.749 6.56002 111.759 6.5923 111.769L12.9126 112.878Z" fill="white"/>
<path d="M16.3786 102.228C16.3745 102.324 16.3292 102.386 16.2426 102.414L11.2338 103.835C11.2013 103.844 11.1844 103.865 11.1831 103.897L11.124 105.288C11.1222 105.33 11.1426 105.353 11.1852 105.354L16.0768 105.562C16.1834 105.567 16.2344 105.622 16.2299 105.729L16.1953 106.544C16.1907 106.651 16.1352 106.702 16.0286 106.697L5.15841 106.235C5.05184 106.231 5.00082 106.175 5.00535 106.069L5.11738 103.431C5.15043 102.653 5.46488 102.037 6.06073 101.582C6.64592 101.126 7.39677 100.918 8.31328 100.957C9.00599 100.986 9.59645 101.161 10.0847 101.48C10.5729 101.8 10.9073 102.22 11.0881 102.74C11.0969 102.783 11.1229 102.8 11.166 102.791L16.2435 101.261L16.3081 101.248C16.3827 101.251 16.418 101.301 16.4139 101.397L16.3786 102.228ZM6.04059 105.072C6.03878 105.115 6.05919 105.137 6.10181 105.139L10.1462 105.31C10.1888 105.312 10.211 105.292 10.2128 105.249L10.2739 103.81C10.2948 103.32 10.125 102.918 9.76469 102.604C9.39371 102.289 8.89384 102.118 8.26507 102.092C7.6363 102.065 7.12375 102.193 6.72743 102.475C6.3311 102.757 6.12252 103.143 6.1017 103.633L6.04059 105.072Z" fill="white"/>
<path d="M5.57934 94.6644C5.59083 94.5583 5.6496 94.511 5.75564 94.5225L6.42373 94.5949C6.52978 94.6064 6.57705 94.6652 6.56556 94.7712L6.33804 96.8709C6.33344 96.9134 6.35235 96.9369 6.39477 96.9415L16.3207 98.017C16.4267 98.0285 16.474 98.0873 16.4625 98.1934L16.3746 99.0046C16.3631 99.1107 16.3043 99.1579 16.1983 99.1464L6.27239 98.0709C6.22997 98.0663 6.20646 98.0852 6.20186 98.1276L5.98813 100.1C5.97663 100.206 5.91787 100.253 5.81182 100.242L5.14373 100.169C5.03768 100.158 4.99041 100.099 5.0019 99.9932L5.57934 94.6644Z" fill="white"/>
<path d="M17.704 92.4096C17.5532 93.2169 17.154 93.8151 16.5062 94.2041C15.8584 94.5932 15.0784 94.7025 14.1662 94.5321L6.22356 93.0486C6.1187 93.029 6.07607 92.9668 6.09565 92.8619L6.24547 92.0598C6.26506 91.9549 6.32728 91.9123 6.43213 91.9319L14.5006 93.4389C15.0773 93.5466 15.5703 93.4922 15.9797 93.2757C16.391 93.0487 16.6408 92.6993 16.7289 92.2274C16.819 91.7451 16.7132 91.3239 16.4115 90.9637C16.1099 90.6035 15.6707 90.3696 15.094 90.2618L7.02553 88.7548C6.92068 88.7353 6.87805 88.673 6.89763 88.5682L7.04745 87.7661C7.06703 87.6612 7.12925 87.6186 7.23411 87.6381L15.1768 89.1217C16.089 89.292 16.7759 89.6808 17.2377 90.2879C17.7013 90.8845 17.8568 91.5917 17.704 92.4096Z" fill="white"/>
<path d="M7.76161 82.5428C7.95384 81.7883 8.38829 81.2495 9.06496 80.9266C9.7313 80.601 10.5141 80.5528 11.4134 80.7819C12.3023 81.0083 12.9628 81.4187 13.3947 82.0131C13.8164 82.6048 13.9324 83.2728 13.7428 84.0171L13.3359 85.614C13.3254 85.6554 13.3408 85.6813 13.3822 85.6919L18.0646 86.8848C18.168 86.9111 18.2065 86.9759 18.1802 87.0793L17.9787 87.8701C17.9524 87.9734 17.8875 88.0119 17.7842 87.9856L7.22541 85.2957C7.12205 85.2693 7.08353 85.2045 7.10986 85.1011L7.76161 82.5428ZM12.7961 83.974C12.9146 83.5089 12.8247 83.0842 12.5263 82.7C12.2279 82.3157 11.7686 82.0446 11.1484 81.8866C10.5282 81.7286 9.99523 81.747 9.54938 81.9416C9.09319 82.1336 8.80585 82.4621 8.68735 82.9273L8.32791 84.3382C8.31737 84.3796 8.33278 84.4055 8.37413 84.416L12.3589 85.4312C12.4002 85.4417 12.4261 85.4263 12.4367 85.385L12.7961 83.974Z" fill="white"/>
<path d="M10.6532 74.4234C10.5521 74.3893 10.5186 74.3217 10.5526 74.2207L10.8082 73.4626C10.8423 73.3615 10.9098 73.328 11.0109 73.3621L21.3209 76.8374C21.422 76.8715 21.4555 76.9391 21.4214 77.0402L21.1199 77.9347C21.0926 78.0156 21.0335 78.0575 20.9424 78.0606L12.1071 78.3748C12.0734 78.3747 12.0582 78.3865 12.0615 78.4101C12.0547 78.4303 12.0664 78.4455 12.0967 78.4558L19.895 81.0676C19.9961 81.1016 20.0296 81.1692 19.9955 81.2703L19.7348 82.0436C19.7008 82.1446 19.6332 82.1781 19.5321 82.1441L9.22212 78.6687C9.12104 78.6346 9.08754 78.567 9.12161 78.466L9.41804 77.5866C9.4453 77.5057 9.50447 77.4637 9.59555 77.4607L18.4511 77.1364C18.4848 77.1365 18.5051 77.1265 18.5119 77.1062C18.5086 77.0826 18.4918 77.0657 18.4615 77.0555L10.6532 74.4234Z" fill="white"/>
<path d="M22.9934 72.3317C22.9567 72.4204 22.8899 72.4562 22.793 72.4392L20.807 72.0495C20.7872 72.0414 20.7684 72.0451 20.7504 72.0607C20.7364 72.0665 20.7254 72.0793 20.7172 72.099L19.609 74.7745C19.6009 74.7943 19.5976 74.816 19.5993 74.8398C19.6051 74.8537 19.6178 74.8648 19.6375 74.873L21.3175 76.0017C21.4021 76.0483 21.424 76.1209 21.3832 76.2194L21.0709 76.9733C21.0505 77.0226 21.0194 77.0559 20.9776 77.0732C20.9399 77.0807 20.8984 77.0693 20.8532 77.039L11.7197 70.6583C11.6391 70.6019 11.6172 70.5293 11.654 70.4406L12.0213 69.5537C12.0622 69.4551 12.129 69.4193 12.2217 69.4462L23.2043 71.3626L23.2338 71.3749C23.3225 71.4116 23.3485 71.4743 23.3118 71.563L22.9934 72.3317ZM18.7415 74.2767C18.7809 74.293 18.8068 74.2864 18.819 74.2568L19.7864 71.9212C19.7986 71.8917 19.785 71.8687 19.7456 71.8524L13.4464 70.6288C13.4127 70.6264 13.3939 70.6302 13.3898 70.64C13.3857 70.6499 13.3964 70.6659 13.4219 70.688L18.7415 74.2767Z" fill="white"/>
<path d="M16.1461 60.8711C16.1935 60.7755 16.2649 60.7514 16.3605 60.7987L16.9627 61.0968C17.0583 61.1442 17.0825 61.2156 17.0351 61.3112L16.0981 63.204C16.0792 63.2422 16.0888 63.2708 16.1271 63.2897L25.0746 67.7193C25.1702 67.7667 25.1944 67.8381 25.147 67.9337L24.785 68.665C24.7377 68.7606 24.6662 68.7847 24.5706 68.7374L15.6231 64.3078C15.5848 64.2889 15.5562 64.2985 15.5373 64.3368L14.6571 66.1148C14.6097 66.2104 14.5383 66.2345 14.4427 66.1872L13.8404 65.8891C13.7449 65.8417 13.7207 65.7703 13.768 65.6747L16.1461 60.8711Z" fill="white"/>
<path d="M25.8457 65.6471C25.7949 65.7408 25.7226 65.7623 25.6288 65.7115L16.0636 60.5268C15.9698 60.476 15.9483 60.4037 15.9992 60.3099L16.388 59.5925C16.4388 59.4987 16.5111 59.4772 16.6049 59.5281L26.1701 64.7128C26.2639 64.7636 26.2854 64.8359 26.2345 64.9297L25.8457 65.6471Z" fill="white"/>
<path d="M29.6694 59.8834C29.2234 60.5731 28.6465 60.994 27.9385 61.1459C27.2363 61.2889 26.5315 61.1316 25.8238 60.674L20.9063 57.4942C20.1987 57.0367 19.766 56.4584 19.6083 55.7594C19.4564 55.0514 19.6034 54.3526 20.0494 53.6629C20.5012 52.9642 21.081 52.539 21.789 52.387C22.4969 52.2351 23.2047 52.3879 23.9124 52.8455L28.8299 56.0252C29.5285 56.477 29.9583 57.0598 30.1192 57.7735C30.2711 58.4815 30.1212 59.1848 29.6694 59.8834ZM28.8364 59.3448C29.1028 58.9328 29.1828 58.5145 29.0762 58.0899C28.9665 57.6506 28.6967 57.2919 28.2668 57.0139L23.2552 53.7733C22.8163 53.4895 22.3785 53.3906 21.9418 53.4766C21.502 53.5479 21.1488 53.7895 20.8824 54.2016C20.6218 54.6046 20.5492 55.0213 20.6647 55.4517C20.7712 55.8763 21.044 56.2304 21.4829 56.5142L26.4944 59.7548C26.9244 60.0328 27.3593 60.1362 27.7991 60.065C28.23 59.9879 28.5758 59.7479 28.8364 59.3448Z" fill="white"/>
<path d="M25.5067 46.6731C25.4216 46.6088 25.4112 46.5341 25.4755 46.449L25.9579 45.8108C26.0222 45.7257 26.0969 45.7153 26.182 45.7796L34.8621 52.3393C34.9472 52.4036 34.9576 52.4783 34.8933 52.5634L34.3242 53.3165C34.2727 53.3846 34.2033 53.4057 34.1159 53.3797L25.6354 50.8816C25.6034 50.8709 25.5853 50.8772 25.5809 50.9006C25.5681 50.9177 25.5744 50.9358 25.5999 50.9551L32.1707 55.9007C32.2558 55.965 32.2662 56.0397 32.2019 56.1248L31.71 56.7758C31.6456 56.8609 31.5709 56.8713 31.4858 56.807L22.8057 50.2473C22.7206 50.183 22.7102 50.1083 22.7745 50.0232L23.334 49.2828C23.3854 49.2148 23.4549 49.1937 23.5422 49.2196L32.0452 51.7146C32.0772 51.7254 32.0996 51.7223 32.1124 51.7052C32.1168 51.6818 32.1062 51.6604 32.0807 51.6411L25.5067 46.6731Z" fill="white"/>
<path d="M37.2292 48.4671C37.0548 48.6689 36.8473 48.7786 36.6066 48.7961C36.3728 48.8055 36.1591 48.7266 35.9654 48.5592C35.7637 48.3848 35.6546 48.1848 35.6381 47.9591C35.6206 47.7184 35.699 47.4971 35.8734 47.2954C36.0408 47.1017 36.2448 46.9961 36.4856 46.9786C36.7182 46.9541 36.9354 47.029 37.1372 47.2034C37.3309 47.3708 37.4365 47.5748 37.454 47.8155C37.4715 48.0563 37.3966 48.2735 37.2292 48.4671Z" fill="white"/>
<path d="M42.6082 42.6719C42.0321 43.2115 41.3863 43.4583 40.6709 43.4122C39.9555 43.3662 39.3098 43.0357 38.7337 42.4206L38.4822 42.1521C38.4092 42.0742 38.4117 41.9988 38.4896 41.9259L39.0618 41.39C39.1396 41.317 39.215 41.3195 39.2879 41.3973L39.5067 41.6309C39.8931 42.0435 40.3118 42.2798 40.7626 42.3399C41.2061 42.3921 41.5953 42.2614 41.93 41.9479C42.257 41.6416 42.4165 41.2658 42.4084 40.8202C42.4003 40.3747 42.2104 39.9535 41.8385 39.5564C41.5906 39.2917 41.3246 39.117 41.0406 39.0323C40.7571 38.9324 40.4641 38.8927 40.1616 38.9129C39.8595 38.9182 39.3753 38.9551 38.709 39.0239C38.05 39.1004 37.5127 39.1432 37.0974 39.1523C36.6747 39.1536 36.2546 39.0794 35.8369 38.9299C35.4269 38.7732 35.0397 38.5001 34.6751 38.1109C34.1063 37.5036 33.833 36.8608 33.8552 36.1823C33.8701 35.4961 34.1578 34.8905 34.7184 34.3655C35.31 33.8113 35.9633 33.5647 36.6782 33.6259C37.3936 33.6719 38.0503 34.0141 38.6482 34.6525L38.9217 34.9444C38.9946 35.0223 38.9921 35.0977 38.9143 35.1706L38.3304 35.7175C38.2526 35.7904 38.1772 35.7879 38.1043 35.7101L37.8199 35.4065C37.4334 34.9938 37.0184 34.7614 36.5749 34.7092C36.1318 34.6419 35.739 34.7686 35.3965 35.0895C35.0851 35.3811 34.9339 35.7346 34.943 36.15C34.9447 36.5576 35.1352 36.9638 35.5144 37.3686C35.7404 37.6099 35.9838 37.7839 36.2444 37.8905C36.5055 37.9821 36.8022 38.0258 37.1344 38.0215C37.4666 38.0173 37.9318 37.9835 38.53 37.92C39.318 37.8251 39.9269 37.7808 40.3569 37.7874C40.7873 37.7788 41.1851 37.8446 41.5503 37.9849C41.9082 38.1173 42.2549 38.3626 42.5903 38.7207C43.1882 39.3591 43.4865 40.0443 43.4852 40.7762C43.4766 41.5004 43.1843 42.1323 42.6082 42.6719Z" fill="white"/>
<path d="M41.8866 28.0394C41.9691 27.9717 42.0441 27.9791 42.1118 28.0616L42.5381 28.581C42.6058 28.6635 42.5984 28.7385 42.5159 28.8062L40.8834 30.1461C40.8504 30.1731 40.8474 30.2032 40.8745 30.2361L47.2083 37.9538C47.276 38.0363 47.2686 38.1113 47.1862 38.179L46.5554 38.6967C46.4729 38.7643 46.3979 38.7569 46.3302 38.6745L39.9963 30.9568C39.9693 30.9238 39.9393 30.9209 39.9063 30.9479L38.3726 32.2066C38.2902 32.2743 38.2151 32.2669 38.1474 32.1844L37.7211 31.665C37.6535 31.5825 37.6609 31.5074 37.7433 31.4398L41.8866 28.0394Z" fill="white"/>
<path d="M53.8416 33.0527C53.7636 33.1086 53.688 33.1037 53.6147 33.0381L52.1342 31.6581C52.1218 31.6408 52.1038 31.634 52.0802 31.6377C52.0653 31.6353 52.0492 31.6403 52.0319 31.6527L49.6776 33.3391C49.6602 33.3515 49.646 33.3683 49.6349 33.3894C49.6324 33.4043 49.6374 33.4204 49.6498 33.4377L50.48 35.2836C50.5272 35.3678 50.5074 35.441 50.4207 35.5031L49.7574 35.9783C49.714 36.0093 49.67 36.0212 49.6253 36.0138C49.5894 36.0002 49.5602 35.9686 49.5378 35.9191L45.1532 25.6765C45.1146 25.586 45.1344 25.5129 45.2124 25.457L45.9929 24.8979C46.0796 24.8358 46.1552 24.8407 46.2198 24.9125L54.5326 32.3413L54.5512 32.3673C54.6071 32.4453 54.5961 32.5123 54.518 32.5682L53.8416 33.0527ZM49.204 32.4581C49.2288 32.4928 49.2542 32.5008 49.2803 32.4822L51.3354 31.0101C51.3614 30.9914 51.362 30.9648 51.3372 30.9301L46.6349 26.5636C46.6076 26.5438 46.5896 26.537 46.5809 26.5432C46.5723 26.5494 46.5729 26.5686 46.5829 26.6009L49.204 32.4581Z" fill="white"/>
<path d="M58.3786 29.7981C58.297 29.8487 58.2202 29.8462 58.148 29.7906L54.1536 26.4513C54.1276 26.4297 54.101 26.4274 54.0739 26.4442L52.8913 27.1785C52.855 27.201 52.8482 27.2304 52.8707 27.2666L55.4533 31.4261C55.5095 31.5167 55.4924 31.5901 55.4017 31.6464L54.7085 32.0768C54.6179 32.1331 54.5444 32.1159 54.4882 32.0253L48.749 22.7821C48.6928 22.6915 48.71 22.618 48.8006 22.5618L51.0434 21.1692C51.7049 20.7585 52.3915 20.6712 53.1031 20.9073C53.8091 21.1344 54.4041 21.6376 54.888 22.4169C55.2537 23.006 55.4419 23.5922 55.4526 24.1757C55.4633 24.7591 55.3047 25.272 54.9766 25.7142C54.946 25.7458 54.9464 25.7769 54.978 25.8075L59.1013 29.1422L59.1487 29.1881C59.1881 29.2515 59.167 29.3086 59.0854 29.3592L58.3786 29.7981ZM50.2074 22.856C50.1711 22.8785 50.1643 22.9078 50.1868 22.9441L52.3221 26.3831C52.3446 26.4193 52.374 26.4262 52.4102 26.4037L53.6336 25.6441C54.0504 25.3853 54.2872 25.0185 54.3441 24.5438C54.3952 24.06 54.2548 23.5508 53.9229 23.0162C53.5909 22.4815 53.1968 22.1298 52.7405 21.9612C52.2842 21.7925 51.8476 21.8375 51.4308 22.0964L50.2074 22.856Z" fill="white"/>
<path d="M58.7625 16.5625C58.8567 16.5123 58.9288 16.5344 58.9789 16.6285L59.2948 17.2216C59.3449 17.3158 59.3229 17.3879 59.2288 17.4381L57.3646 18.4308C57.327 18.4508 57.3182 18.4797 57.3382 18.5173L62.0309 27.3298C62.0811 27.4239 62.0591 27.496 61.9649 27.5462L61.2447 27.9297C61.1505 27.9799 61.0784 27.9578 61.0282 27.8637L56.3355 19.0513C56.3155 19.0136 56.2866 19.0048 56.2489 19.0249L54.4978 19.9574C54.4036 20.0075 54.3315 19.9855 54.2813 19.8914L53.9655 19.2982C53.9153 19.2041 53.9373 19.1319 54.0315 19.0818L58.7625 16.5625Z" fill="white"/>
<path d="M67.1277 25.4054C66.3761 25.7366 65.6569 25.7446 64.9702 25.4294C64.2835 25.1143 63.753 24.5321 63.3788 23.6829L60.1205 16.289C60.0775 16.1914 60.1047 16.121 60.2024 16.078L60.9491 15.749C61.0467 15.706 61.117 15.7333 61.16 15.8309L64.4699 23.3419C64.7065 23.8788 65.0297 24.2551 65.4395 24.4708C65.859 24.6822 66.2884 24.6912 66.7277 24.4976C67.1767 24.2997 67.4647 23.9746 67.5918 23.5223C67.7188 23.07 67.6641 22.5754 67.4275 22.0386L64.1176 14.5275C64.0746 14.4299 64.1019 14.3596 64.1995 14.3166L64.9462 13.9876C65.0438 13.9445 65.1141 13.9718 65.1571 14.0695L68.4154 21.4634C68.7896 22.3126 68.8565 23.0991 68.6159 23.8229C68.3851 24.5424 67.889 25.0699 67.1277 25.4054Z" fill="white"/>
<path d="M69.4845 11.3325C70.2166 11.0672 70.9064 11.1235 71.554 11.5015C72.1979 11.8695 72.6779 12.4897 72.9941 13.3621C73.3067 14.2246 73.3387 15.0015 73.0901 15.6929C72.8378 16.3743 72.3507 16.8459 71.6286 17.1076L70.0792 17.6691C70.0391 17.6836 70.0263 17.711 70.0409 17.7511L71.6873 22.2939C71.7237 22.3942 71.6917 22.4625 71.5914 22.4989L70.8242 22.7769C70.724 22.8132 70.6556 22.7813 70.6193 22.681L66.9066 12.437C66.8703 12.3367 66.9022 12.2684 67.0025 12.2321L69.4845 11.3325ZM71.1319 16.3005C71.5832 16.137 71.8838 15.8238 72.0337 15.361C72.1837 14.8982 72.1496 14.366 71.9316 13.7643C71.7135 13.1626 71.3986 12.7321 70.987 12.4728C70.5717 12.2036 70.1384 12.1507 69.6872 12.3142L68.3183 12.8104C68.2782 12.8249 68.2654 12.8522 68.2799 12.8923L69.6811 16.7583C69.6956 16.7984 69.7229 16.8112 69.763 16.7966L71.1319 16.3005Z" fill="white"/>
<path d="M77.9122 9.43903C77.8835 9.33629 77.9206 9.27058 78.0233 9.2419L78.7938 9.02681C78.8966 8.99813 78.9623 9.03516 78.991 9.13789L81.9163 19.6173C81.945 19.72 81.9079 19.7857 81.8052 19.8144L80.896 20.0682C80.8138 20.0911 80.7458 20.0658 80.692 19.9922L75.4628 12.8637C75.4439 12.8358 75.4256 12.8298 75.408 12.8458C75.3874 12.8515 75.3815 12.8698 75.3901 12.9006L77.6167 20.8175C77.6453 20.9202 77.6083 20.9859 77.5056 21.0146L76.7196 21.234C76.6169 21.2627 76.5512 21.2257 76.5225 21.1229L73.5972 10.6436C73.5685 10.5408 73.6055 10.4751 73.7083 10.4464L74.6021 10.1969C74.6843 10.174 74.7523 10.1993 74.806 10.2729L80.055 17.4125C80.0738 17.4405 80.0935 17.4516 80.1141 17.4458C80.1318 17.4298 80.1363 17.4064 80.1277 17.3756L77.9122 9.43903Z" fill="white"/>
<path d="M86.7119 18.7246C86.6179 18.7444 86.5507 18.7095 86.51 18.62L85.7097 16.761C85.7053 16.7401 85.6916 16.7267 85.6685 16.7206C85.6559 16.7124 85.6391 16.7105 85.6182 16.7149L82.7844 17.3117C82.7635 17.3161 82.7438 17.3257 82.7251 17.3405C82.7168 17.3532 82.7149 17.3699 82.7193 17.3908L82.7368 19.4146C82.7461 19.5108 82.6986 19.5698 82.5942 19.5918L81.7957 19.76C81.7435 19.771 81.6985 19.7641 81.6606 19.7394C81.6331 19.7125 81.6191 19.6718 81.6185 19.6174L81.7249 8.47638C81.726 8.37805 81.7735 8.31899 81.8674 8.2992L82.8068 8.10137C82.9112 8.07938 82.9785 8.11426 83.0087 8.206L87.6307 18.3513L87.6373 18.3826C87.657 18.4765 87.62 18.5334 87.526 18.5532L86.7119 18.7246ZM82.7052 16.3146C82.714 16.3563 82.7341 16.3739 82.7654 16.3673L85.2391 15.8464C85.2704 15.8398 85.2817 15.8156 85.2729 15.7738L82.7245 9.8846C82.7075 9.85548 82.6938 9.84202 82.6833 9.84422C82.6729 9.84642 82.6658 9.86428 82.6619 9.89779L82.7052 16.3146Z" fill="white"/>
<path d="M92.8233 6.09164C92.9289 6.07689 92.9891 6.12234 93.0039 6.22798L93.0968 6.89353C93.1115 6.99918 93.0661 7.05937 92.9604 7.07411L90.8687 7.36606C90.8264 7.37196 90.8083 7.39604 90.8142 7.4383L92.1943 17.3264C92.209 17.4321 92.1636 17.4923 92.0579 17.507L91.2498 17.6198C91.1441 17.6346 91.0839 17.5891 91.0692 17.4835L89.6891 7.59533C89.6832 7.55307 89.6591 7.53489 89.6168 7.54079L87.6519 7.81504C87.5462 7.82979 87.486 7.78434 87.4713 7.6787L87.3784 7.01315C87.3637 6.90751 87.4091 6.84731 87.5148 6.83257L92.8233 6.09164Z" fill="white"/>
<path d="M95.0607 16.9643C94.9545 16.975 94.8961 16.9273 94.8855 16.8211L93.7966 5.99577C93.7859 5.88964 93.8337 5.83124 93.9398 5.82056L94.7517 5.7389C94.8578 5.72822 94.9162 5.77595 94.9269 5.88208L96.0158 16.7075C96.0264 16.8136 95.9787 16.872 95.8726 16.8827L95.0607 16.9643Z" fill="white"/>
<path d="M100.22 16.2C99.3993 16.2221 98.726 15.9843 98.2003 15.4863C97.6854 14.988 97.4165 14.3177 97.3937 13.4753L97.2355 7.62146C97.2128 6.7791 97.445 6.09525 97.9324 5.56989C98.4303 5.04425 99.0898 4.77033 99.9109 4.74814C100.743 4.72567 101.421 4.96342 101.947 5.4614C102.473 5.95938 102.747 6.62955 102.77 7.47191L102.928 13.3258C102.95 14.1575 102.713 14.8415 102.215 15.3778C101.717 15.9034 101.052 16.1775 100.22 16.2ZM100.194 15.2083C100.684 15.1951 101.074 15.0245 101.364 14.6965C101.664 14.3576 101.808 13.9323 101.794 13.4204L101.633 7.45462C101.619 6.93214 101.453 6.51514 101.135 6.20361C100.827 5.88114 100.428 5.72652 99.9377 5.73978C99.4579 5.75275 99.0731 5.92854 98.7835 6.26715C98.4936 6.5951 98.3557 7.02032 98.3698 7.54279L98.531 13.5086C98.5449 14.0204 98.7055 14.4376 99.013 14.7601C99.3202 15.0719 99.7137 15.2213 100.194 15.2083Z" fill="white"/>
<path d="M110.53 5.41213C110.536 5.3056 110.591 5.25501 110.698 5.26036L111.497 5.30047C111.604 5.30582 111.654 5.36176 111.649 5.46829L111.103 16.3346C111.098 16.4411 111.042 16.4917 110.935 16.4864L109.993 16.439C109.907 16.4348 109.851 16.3892 109.823 16.3024L107.122 7.88434C107.113 7.85185 107.097 7.84039 107.076 7.84998C107.054 7.84891 107.043 7.86435 107.041 7.89631L106.645 16.1108C106.639 16.2173 106.584 16.2679 106.477 16.2625L105.662 16.2216C105.556 16.2163 105.505 16.1603 105.51 16.0538L106.056 5.18749C106.061 5.08096 106.117 5.03037 106.224 5.03571L107.15 5.08225C107.236 5.08653 107.292 5.13208 107.32 5.21891L110.036 13.6537C110.045 13.6862 110.061 13.703 110.082 13.7041C110.104 13.6945 110.115 13.6737 110.117 13.6418L110.53 5.41213Z" fill="white"/>
<path d="M115.822 17.2127C115.557 17.1819 115.349 17.0719 115.199 16.8827C115.06 16.6947 115.005 16.4736 115.035 16.2193C115.066 15.9544 115.17 15.7517 115.347 15.6113C115.536 15.4614 115.763 15.4019 116.028 15.4327C116.283 15.4622 116.485 15.5716 116.635 15.7608C116.786 15.9394 116.846 16.1612 116.815 16.4261C116.785 16.6803 116.676 16.8824 116.487 17.0322C116.298 17.1821 116.076 17.2422 115.822 17.2127Z" fill="white"/>
<path d="M122.898 17.6418C122.128 17.4703 121.56 17.0761 121.195 16.4594C120.829 15.8426 120.738 15.1229 120.921 14.3004L121.001 13.9412C121.024 13.837 121.088 13.7966 121.192 13.8197L121.957 13.9901C122.062 14.0132 122.102 14.0769 122.079 14.181L122.009 14.4934C121.886 15.0452 121.927 15.5242 122.132 15.9304C122.339 16.3261 122.666 16.5738 123.114 16.6735C123.551 16.7708 123.952 16.6905 124.315 16.4326C124.678 16.1748 124.919 15.7803 125.037 15.2493C125.116 14.8953 125.11 14.5771 125.02 14.2948C124.943 14.0044 124.811 13.74 124.623 13.5016C124.449 13.2551 124.145 12.8761 123.712 12.3646C123.278 11.8634 122.939 11.4439 122.698 11.106C122.458 10.7577 122.283 10.3689 122.17 9.93962C122.069 9.51267 122.076 9.03889 122.192 8.5183C122.373 7.70617 122.749 7.11799 123.322 6.75374C123.897 6.37908 124.56 6.27518 125.309 6.44203C126.101 6.61816 126.673 7.01866 127.025 7.64354C127.391 8.26033 127.478 8.99561 127.288 9.84938L127.201 10.2398C127.178 10.3439 127.115 10.3844 127.01 10.3612L126.23 10.1874C126.125 10.1643 126.085 10.1006 126.108 9.99649L126.199 9.59043C126.321 9.0386 126.279 8.56481 126.072 8.16906C125.878 7.76521 125.552 7.5123 125.094 7.41034C124.677 7.31764 124.3 7.39213 123.962 7.63382C123.627 7.8651 123.399 8.25145 123.278 8.79287C123.206 9.11564 123.2 9.41471 123.259 9.69009C123.33 9.95737 123.462 10.227 123.652 10.4989C123.843 10.7709 124.133 11.136 124.523 11.5943C125.046 12.1915 125.426 12.6694 125.663 13.0282C125.913 13.3788 126.083 13.7445 126.173 14.1251C126.265 14.4954 126.258 14.92 126.151 15.3989C125.961 16.2527 125.564 16.8854 124.959 17.2971C124.356 17.6984 123.669 17.8133 122.898 17.6418Z" fill="white"/>
<path d="M134.609 9.49785C134.711 9.52808 134.747 9.59435 134.717 9.69664L134.526 10.3411C134.496 10.4434 134.43 10.4794 134.328 10.4492L132.302 9.85057C132.261 9.83847 132.235 9.85289 132.223 9.8938L129.393 19.4684C129.363 19.5707 129.297 19.6067 129.194 19.5765L128.412 19.3452C128.309 19.315 128.273 19.2487 128.304 19.1464L131.133 9.57183C131.145 9.53091 131.131 9.5044 131.09 9.49231L129.187 8.92999C129.085 8.89975 129.049 8.83349 129.079 8.7312L129.27 8.08675C129.3 7.98446 129.366 7.94843 129.469 7.97866L134.609 9.49785Z" fill="white"/>
<path d="M136.63 22.0468C136.54 22.0135 136.501 21.948 136.515 21.8506L136.83 19.8514C136.837 19.8314 136.833 19.8126 136.816 19.7952C136.81 19.7815 136.797 19.771 136.777 19.7635L134.062 18.7563C134.042 18.7489 134.02 18.7465 133.996 18.7491C133.983 18.7554 133.972 18.7685 133.965 18.7885L132.9 20.5095C132.856 20.5958 132.784 20.6204 132.684 20.5833L131.919 20.2995C131.869 20.281 131.835 20.2512 131.816 20.21C131.807 20.1726 131.817 20.1307 131.846 20.0845L137.88 10.7184C137.933 10.6358 138.005 10.6112 138.095 10.6446L138.995 10.9784C139.095 11.0155 139.133 11.0809 139.11 11.1747L137.606 22.2213L137.595 22.2513C137.562 22.3413 137.5 22.3696 137.41 22.3362L136.63 22.0468ZM134.527 17.8708C134.512 17.9108 134.52 17.9363 134.55 17.9475L136.92 18.8267C136.95 18.8378 136.972 18.8234 136.987 18.7834L137.974 12.4428C137.975 12.409 137.971 12.3903 137.961 12.3866C137.951 12.3829 137.935 12.3942 137.914 12.4205L134.527 17.8708Z" fill="white"/>
<path d="M142.793 24.0835C142.705 24.0445 142.664 23.9795 142.669 23.8885L143.189 18.7081C143.192 18.6745 143.179 18.6513 143.15 18.6382L141.878 18.0722C141.839 18.0548 141.811 18.0656 141.794 18.1046L139.803 22.5775C139.759 22.6749 139.689 22.702 139.591 22.6586L138.846 22.3268C138.749 22.2834 138.722 22.213 138.765 22.1155L143.189 12.1758C143.233 12.0783 143.303 12.0513 143.401 12.0947L145.812 13.1683C146.524 13.4849 146.982 14.004 147.186 14.7254C147.395 15.4371 147.312 16.2119 146.939 17.05C146.657 17.6834 146.278 18.1684 145.801 18.5049C145.325 18.8415 144.811 18.9982 144.261 18.9752C144.218 18.9676 144.192 18.9854 144.185 19.0287L143.741 24.3131L143.73 24.3781C143.7 24.4463 143.64 24.4609 143.553 24.4219L142.793 24.0835ZM143.947 13.4239C143.908 13.4065 143.88 13.4173 143.863 13.4563L142.217 17.1545C142.199 17.1935 142.21 17.2216 142.249 17.239L143.565 17.8246C144.013 18.0241 144.449 18.0141 144.874 17.7945C145.303 17.5651 145.646 17.163 145.901 16.588C146.157 16.0131 146.227 15.4895 146.11 15.0172C145.994 14.5449 145.711 14.209 145.263 14.0095L143.947 13.4239Z" fill="white"/>
<path d="M153.276 17.2514C153.371 17.3012 153.393 17.3733 153.343 17.4676L153.03 18.0619C152.98 18.1563 152.908 18.1785 152.813 18.1287L150.946 17.1429C150.908 17.123 150.879 17.1319 150.859 17.1697L146.199 25.9994C146.149 26.0937 146.077 26.116 145.983 26.0662L145.261 25.6853C145.167 25.6355 145.145 25.5635 145.194 25.4692L149.854 16.6394C149.874 16.6017 149.866 16.5729 149.828 16.553L148.073 15.6269C147.979 15.5771 147.957 15.5051 148.006 15.4107L148.32 14.8164C148.37 14.7221 148.442 14.6998 148.536 14.7496L153.276 17.2514Z" fill="white"/>
<path d="M151.753 28.8387C151.058 28.4003 150.65 27.8083 150.528 27.0627C150.406 26.317 150.592 25.5518 151.087 24.767L155.4 17.9341C155.457 17.8439 155.53 17.8272 155.62 17.8841L156.311 18.3197C156.401 18.3766 156.417 18.4502 156.36 18.5404L151.98 25.4816C151.667 25.9777 151.535 26.4559 151.585 26.9164C151.644 27.3824 151.876 27.7436 152.282 27.9998C152.697 28.2617 153.128 28.3189 153.574 28.1717C154.02 28.0244 154.4 27.7027 154.713 27.2065L159.094 20.2653C159.151 20.1751 159.224 20.1585 159.314 20.2154L160.004 20.6509C160.095 20.7079 160.111 20.7814 160.054 20.8716L155.742 27.7046C155.247 28.4894 154.632 28.9842 153.897 29.189C153.171 29.3995 152.457 29.2827 151.753 28.8387Z" fill="white"/>
<path d="M164.523 23.36C165.152 23.8181 165.492 24.4212 165.541 25.1694C165.597 25.9089 165.352 26.6539 164.806 27.4043C164.266 28.1462 163.64 28.6076 162.928 28.7887C162.222 28.9612 161.559 28.8215 160.938 28.3697L159.605 27.4003C159.571 27.3752 159.541 27.3799 159.516 27.4144L156.673 31.322C156.611 31.4082 156.536 31.42 156.45 31.3572L155.79 30.8772C155.704 30.8145 155.692 30.74 155.755 30.6537L162.164 21.8423C162.227 21.7561 162.302 21.7443 162.388 21.8071L164.523 23.36ZM161.329 27.5063C161.717 27.7887 162.145 27.8625 162.612 27.7276C163.079 27.5928 163.501 27.2666 163.878 26.749C164.254 26.2315 164.435 25.7296 164.419 25.2434C164.41 24.7485 164.211 24.3599 163.823 24.0775L162.645 23.221C162.611 23.1959 162.581 23.2007 162.556 23.2352L160.137 26.5604C160.112 26.5949 160.117 26.6248 160.151 26.6498L161.329 27.5063Z" fill="white"/>
<path d="M170.253 28.5998C170.322 28.5183 170.397 28.512 170.478 28.5809L171.089 29.0974C171.171 29.1662 171.177 29.2414 171.108 29.3229L164.084 37.6318C164.015 37.7132 163.94 37.7195 163.859 37.6507L163.138 37.0412C163.073 36.9861 163.055 36.9157 163.086 36.8299L166.044 28.4984C166.056 28.4671 166.051 28.4486 166.028 28.443C166.011 28.4292 165.993 28.4345 165.972 28.459L160.675 34.7499C160.606 34.8313 160.531 34.8376 160.45 34.7688L159.827 34.242C159.745 34.1731 159.739 34.0979 159.808 34.0165L166.832 25.7076C166.901 25.6261 166.976 25.6198 167.057 25.6887L167.766 26.2878C167.831 26.3429 167.848 26.4133 167.818 26.4992L164.862 34.8531C164.849 34.8845 164.851 34.907 164.868 34.9208C164.891 34.9264 164.913 34.917 164.933 34.8926L170.253 28.5998Z" fill="white"/>
<path d="M167.918 41.425C167.848 41.3584 167.839 41.2831 167.891 41.1992L168.98 39.4934C168.995 39.4781 168.998 39.4591 168.99 39.4366C168.99 39.4216 168.982 39.4066 168.967 39.3918L166.882 37.3816C166.867 37.3668 166.848 37.3558 166.825 37.3487C166.81 37.3489 166.795 37.3567 166.78 37.3721L165.115 38.5226C165.041 38.5843 164.965 38.5781 164.888 38.5041L164.301 37.9377C164.263 37.9006 164.243 37.8595 164.242 37.8143C164.249 37.7764 164.275 37.742 164.32 37.711L173.599 31.5452C173.681 31.4909 173.757 31.497 173.826 31.5637L174.517 32.2301C174.594 32.3041 174.603 32.3794 174.544 32.4559L168.742 41.9758L168.72 41.9989C168.653 42.068 168.586 42.0692 168.516 42.0026L167.918 41.425ZM167.663 36.7563C167.633 36.7871 167.63 36.8135 167.653 36.8357L169.473 38.5905C169.496 38.6127 169.522 38.6085 169.552 38.5778L172.995 33.1629C173.01 33.1325 173.013 33.1136 173.005 33.1062C172.998 33.0988 172.979 33.1029 172.949 33.1185L167.663 36.7563Z" fill="white"/>
<path d="M180.684 37.8916C180.756 37.9705 180.752 38.0459 180.673 38.1176L180.176 38.5698C180.097 38.6416 180.022 38.6381 179.95 38.5592L178.529 36.9969C178.5 36.9653 178.47 36.9639 178.439 36.9926L171.053 43.7111C170.974 43.7829 170.899 43.7793 170.827 43.7004L170.278 43.0968C170.206 43.0179 170.21 42.9426 170.289 42.8708L177.674 36.1523C177.706 36.1236 177.707 36.0935 177.678 36.0619L176.343 34.5943C176.272 34.5154 176.275 34.4401 176.354 34.3683L176.851 33.9161C176.93 33.8443 177.005 33.8479 177.077 33.9268L180.684 37.8916Z" fill="white"/>
<path d="M173.741 47.4659C173.672 47.3841 173.679 47.309 173.761 47.2404L182.095 40.2467C182.177 40.1782 182.252 40.1847 182.32 40.2665L182.845 40.8915C182.913 40.9732 182.907 41.0484 182.825 41.1169L174.491 48.1107C174.409 48.1792 174.334 48.1726 174.265 48.0909L173.741 47.4659Z" fill="white"/>
<path d="M177.203 51.5605C176.722 50.8945 176.539 50.2041 176.655 49.4893C176.777 48.7831 177.179 48.1835 177.862 47.6903L182.611 44.2628C183.294 43.7696 183.99 43.5764 184.698 43.6832C185.413 43.7987 186.011 44.1894 186.492 44.8554C186.979 45.53 187.164 46.2247 187.049 46.9395C186.933 47.6543 186.534 48.2583 185.851 48.7515L181.103 52.179C180.428 52.6659 179.729 52.8548 179.005 52.7456C178.291 52.6301 177.69 52.2351 177.203 51.5605ZM178.007 50.9798C178.294 51.3777 178.655 51.604 179.089 51.6589C179.538 51.7162 179.971 51.595 180.386 51.2953L185.225 47.8023C185.649 47.4964 185.9 47.1244 185.978 46.6863C186.071 46.2506 185.974 45.8338 185.687 45.436C185.406 45.0468 185.044 44.8279 184.601 44.7792C184.167 44.7244 183.738 44.8499 183.314 45.1558L178.475 48.6488C178.06 48.9485 177.806 49.3162 177.713 49.7519C177.628 50.1813 177.726 50.5907 178.007 50.9798Z" fill="white"/>
<path d="M191.857 52.5677C191.948 52.5121 192.021 52.5298 192.077 52.6209L192.494 53.3036C192.549 53.3946 192.531 53.4679 192.44 53.5235L183.155 59.1946C183.064 59.2502 182.991 59.2325 182.935 59.1414L182.443 58.3358C182.399 58.263 182.405 58.1907 182.461 58.1189L187.894 51.1446C187.916 51.1188 187.917 51.0996 187.896 51.0869C187.885 51.0687 187.866 51.068 187.839 51.0846L180.829 55.3849C180.737 55.4405 180.664 55.4228 180.609 55.3318L180.183 54.6354C180.128 54.5444 180.145 54.4711 180.236 54.4155L189.522 48.7444C189.613 48.6888 189.686 48.7065 189.741 48.7976L190.225 49.5895C190.27 49.6624 190.264 49.7347 190.208 49.8065L184.769 56.8028C184.747 56.8285 184.742 56.8505 184.753 56.8687C184.773 56.8814 184.797 56.8794 184.825 56.8627L191.857 52.5677Z" fill="white"/>
</svg>
