<svg width="31" height="23" viewBox="0 0 31 23" fill="none" xmlns="http://www.w3.org/2000/svg">
<path d="M8.19193 11.2011C8.19193 12.1904 8.58497 13.1391 9.28448 13.8386C9.98399 14.5381 10.9327 14.9311 11.9219 14.9311C12.9112 14.9311 13.86 14.5381 14.5595 13.8386C15.259 13.1391 15.6519 12.1904 15.6519 11.2011C15.6519 10.2119 15.259 9.26311 14.5595 8.5636C13.86 7.86409 12.9112 7.47111 11.9219 7.47111C10.9327 7.47111 9.98399 7.86409 9.28448 8.5636C8.58497 9.26311 8.19193 10.2119 8.19193 11.2011ZM8.19193 3.74111C8.19193 4.73037 8.58497 5.67911 9.28448 6.37862C9.98399 7.07813 10.9327 7.47111 11.9219 7.47111C12.9112 7.47111 13.86 7.07813 14.5595 6.37862C15.259 5.67911 15.6519 4.73037 15.6519 3.74111C15.6519 2.75185 15.259 1.80311 14.5595 1.1036C13.86 0.404087 12.9112 0.0111084 11.9219 0.0111084C10.9327 0.0111084 9.98399 0.404087 9.28448 1.1036C8.58497 1.80311 8.19193 2.75185 8.19193 3.74111ZM15.6519 11.2011C15.6519 12.1904 16.045 13.1391 16.7445 13.8386C17.444 14.5381 18.3927 14.9311 19.3819 14.9311C20.3712 14.9311 21.32 14.5381 22.0195 13.8386C22.719 13.1391 23.1119 12.1904 23.1119 11.2011C23.1119 10.2119 22.719 9.26311 22.0195 8.5636C21.32 7.86409 20.3712 7.47111 19.3819 7.47111C18.3927 7.47111 17.444 7.86409 16.7445 8.5636C16.045 9.26311 15.6519 10.2119 15.6519 11.2011ZM8.19193 18.6611C8.19193 19.6504 8.58497 20.5991 9.28448 21.2986C9.98399 21.9981 10.9327 22.3911 11.9219 22.3911C12.9112 22.3911 13.86 21.9981 14.5595 21.2986C15.259 20.5991 15.6519 19.6504 15.6519 18.6611C15.6519 17.6719 15.259 16.7231 14.5595 16.0236C13.86 15.3241 12.9112 14.9311 11.9219 14.9311C10.9327 14.9311 9.98399 15.3241 9.28448 16.0236C8.58497 16.7231 8.19193 17.6719 8.19193 18.6611ZM23.1119 3.74111C23.1119 4.73037 23.505 5.67911 24.2045 6.37862C24.904 7.07813 25.8527 7.47111 26.8419 7.47111C27.8312 7.47111 28.78 7.07813 29.4795 6.37862C30.179 5.67911 30.5719 4.73037 30.5719 3.74111C30.5719 2.75185 30.179 1.80311 29.4795 1.1036C28.78 0.404087 27.8312 0.0111084 26.8419 0.0111084C25.8527 0.0111084 24.904 0.404087 24.2045 1.1036C23.505 1.80311 23.1119 2.75185 23.1119 3.74111ZM0.731934 11.2011C0.731934 12.1904 1.12497 13.1391 1.82448 13.8386C2.52399 14.5381 3.47268 14.9311 4.46193 14.9311C5.45119 14.9311 6.39999 14.5381 7.0995 13.8386C7.79901 13.1391 8.19193 12.1904 8.19193 11.2011C8.19193 10.2119 7.79901 9.26311 7.0995 8.5636C6.39999 7.86409 5.45119 7.47111 4.46193 7.47111C3.47268 7.47111 2.52399 7.86409 1.82448 8.5636C1.12497 9.26311 0.731934 10.2119 0.731934 11.2011ZM15.6519 3.74111C15.6519 4.73037 16.045 5.67911 16.7445 6.37862C17.444 7.07813 18.3927 7.47111 19.3819 7.47111C20.3712 7.47111 21.32 7.07813 22.0195 6.37862C22.719 5.67911 23.1119 4.73037 23.1119 3.74111C23.1119 2.75185 22.719 1.80311 22.0195 1.1036C21.32 0.404087 20.3712 0.0111084 19.3819 0.0111084C18.3927 0.0111084 17.444 0.404087 16.7445 1.1036C16.045 1.80311 15.6519 2.75185 15.6519 3.74111ZM0.731934 3.74111C0.731934 4.73037 1.12497 5.67911 1.82448 6.37862C2.52399 7.07813 3.47268 7.47111 4.46193 7.47111C5.45119 7.47111 6.39999 7.07813 7.0995 6.37862C7.79901 5.67911 8.19193 4.73037 8.19193 3.74111C8.19193 2.75185 7.79901 1.80311 7.0995 1.1036C6.39999 0.404087 5.45119 0.0111084 4.46193 0.0111084C3.47268 0.0111084 2.52399 0.404087 1.82448 1.1036C1.12497 1.80311 0.731934 2.75185 0.731934 3.74111Z" fill="#FAFF00"/>
</svg>
