<svg width="119" height="119" viewBox="0 0 119 119" fill="none" xmlns="http://www.w3.org/2000/svg">
<circle cx="59.5" cy="59.5" r="59.5" fill="black"/>
<g clip-path="url(#clip0_147_8)">
<path d="M56.559 48.1178C56.559 45.5041 58.302 44.4972 61.0965 44.4972C65.166 44.4972 70.3305 46.0553 74.4 48.7985V33.0616C69.966 30.8472 65.541 30.0035 61.1055 30.0035C50.259 30.0035 43.0305 37.0816 43.0305 48.9166C43.0305 67.421 63.3555 64.421 63.3555 72.401C63.3555 75.4947 61.209 76.4903 58.227 76.4903C53.802 76.4903 48.0825 74.2047 43.593 71.1578V86.216C48.2119 88.7071 53.1876 89.9988 58.218 90.0128C69.3375 90.0128 76.9965 84.0353 76.9965 72.0128C76.9965 52.0685 56.559 55.6422 56.559 48.1178Z" fill="#FFC700"/>
</g>
<line x1="60.5" y1="4" x2="60.5" y2="115" stroke="black"/>
<defs>
<clipPath id="clip0_147_8">
<rect width="48" height="60" fill="white" transform="translate(36 30)"/>
</clipPath>
</defs>
</svg>
